<svg xmlns="http://www.w3.org/2000/svg" width="24" height="24" fill="none"  xmlns:v="https://vecta.io/nano"><g clip-path="url(#A)"><path d="M20.896 2H3.104C2.494 2 2 2.494 2 3.104v17.793C2 21.506 2.494 22 3.104 22h9.579v-7.745h-2.607v-3.018h2.607V9.011c0-2.583 1.578-3.99 3.883-3.99a21.38 21.38 0 0 1 2.329.119v2.7l-1.598.001c-1.253 0-1.496.596-1.496 1.469v1.928h2.989l-.389 3.018h-2.6V22h5.097c.608 0 1.102-.494 1.102-1.104V3.104C22 2.494 21.506 2 20.896 2h0z" fill="#000"/></g><defs><clipPath id="A"><path fill="#fff" transform="translate(2 2)" d="M0 0h20v20H0z"/></clipPath></defs></svg>