<svg width="24" height="24" viewBox="0 0 24 24" fill="none" xmlns="http://www.w3.org/2000/svg">
<path fill-rule="evenodd" clip-rule="evenodd" d="M12 1.89478C6.41696 1.89478 1.89471 6.42322 1.89471 12C1.89471 16.4665 4.79168 20.2505 8.80525 21.5904C9.30772 21.6835 9.49382 21.3733 9.49382 21.1004C9.49382 20.8584 9.48762 20.2257 9.48142 19.382C6.6713 19.99 6.07577 18.0297 6.07577 18.0297C5.61673 16.8635 4.95297 16.5533 4.95297 16.5533C4.03487 15.9268 5.0212 15.9392 5.0212 15.9392C6.03235 16.0136 6.57204 16.9813 6.57204 16.9813C7.47153 18.526 8.93552 18.0793 9.51243 17.8188C9.60548 17.1674 9.86602 16.7208 10.1514 16.4665C7.90576 16.2121 5.54849 15.3436 5.54849 11.4728C5.54849 10.3686 5.9393 9.46907 6.59065 8.76189C6.4852 8.50755 6.13781 7.47779 6.68991 6.08824C6.68991 6.08824 7.53977 5.8153 9.46901 7.1242C10.2754 6.90088 11.1377 6.78922 12 6.78302C12.856 6.78922 13.7245 6.90088 14.5309 7.1242C16.4602 5.8153 17.31 6.08824 17.31 6.08824C17.8621 7.47779 17.5148 8.50755 17.4093 8.76189C18.0544 9.46907 18.4453 10.3686 18.4453 11.4728C18.4453 15.3561 16.0818 16.2059 13.83 16.4602C14.1898 16.7704 14.5185 17.3908 14.5185 18.3337C14.5185 19.686 14.5061 20.7716 14.5061 21.1066C14.5061 21.3795 14.686 21.6897 15.2009 21.5904C19.2145 20.2505 22.1052 16.4665 22.1052 12.0062C22.1052 6.42322 17.583 1.89478 12 1.89478Z" fill="#191717"/>
</svg>
