<svg xmlns="http://www.w3.org/2000/svg" width="24" height="24" fill="none"  xmlns:v="https://vecta.io/nano"><path fill-rule="evenodd" d="M12 1.895A10.11 10.11 0 0 0 1.895 12c0 4.467 2.897 8.25 6.911 9.59.502.093.689-.217.689-.49l-.012-1.718c-2.81.608-3.406-1.352-3.406-1.352-.459-1.166-1.123-1.476-1.123-1.476-.918-.626.068-.614.068-.614 1.011.074 1.551 1.042 1.551 1.042.899 1.545 2.363 1.098 2.94.837.093-.651.354-1.098.639-1.352-2.246-.254-4.603-1.123-4.603-4.994 0-1.104.391-2.004 1.042-2.711-.105-.254-.453-1.284.099-2.674 0 0 .85-.273 2.779 1.036.806-.223 1.669-.335 2.531-.341.856.006 1.725.118 2.531.341 1.929-1.309 2.779-1.036 2.779-1.036.552 1.39.205 2.419.099 2.674.645.707 1.036 1.607 1.036 2.711 0 3.883-2.363 4.733-4.615 4.987.36.31.688.931.688 1.874l-.012 2.773c0 .273.18.583.695.484 4.014-1.34 6.904-5.124 6.904-9.584A10.11 10.11 0 0 0 12 1.895z" fill="#191717"/></svg>